<?xml version="1.0" ?><svg xmlns="http://www.w3.org/2000/svg" xmlns:xlink="http://www.w3.org/1999/xlink" version="1.1" id="Layer_1" viewBox="0 0 48 48" enable-background="new 0 0 48 48" xml:space="preserve"><path d="M35,2H17c-0.2651367,0-0.5195313,0.1054688-0.7070313,0.2929688l-8,8C8.1054688,10.4804688,8,10.734375,8,11v30  c0,2.7568359,2.2431641,5,5,5h22c2.7568359,0,5-2.2431641,5-5V7C40,4.2431641,37.7568359,2,35,2z M38,41  c0,1.6542969-1.3457031,3-3,3H13c-1.6542969,0-3-1.3457031-3-3V11.4140625L17.4140625,4H35c1.6542969,0,3,1.3457031,3,3V41z M17,14  h-5c-0.5522461,0-1-0.4472656-1-1s0.4477539-1,1-1h5c0.5512695,0,1-0.4482422,1-1V6c0-0.5527344,0.4477539-1,1-1s1,0.4472656,1,1v5  C20,12.6542969,18.6542969,14,17,14z M21.7070313,31.2929688c0.390625,0.390625,0.390625,1.0234375,0,1.4140625l-4,4  C17.5117188,36.9023438,17.2558594,37,17,37s-0.5117188-0.0976563-0.7070313-0.2929688l-2-2  c-0.390625-0.390625-0.390625-1.0234375,0-1.4140625s1.0234375-0.390625,1.4140625,0L17,34.5859375l3.2929688-3.2929688  C20.6835938,30.9023438,21.3164063,30.9023438,21.7070313,31.2929688z M34,35c0,0.5527344-0.4477539,1-1,1h-9  c-0.5522461,0-1-0.4472656-1-1s0.4477539-1,1-1h9C33.5522461,34,34,34.4472656,34,35z M21.7070313,23.2929688  c0.390625,0.390625,0.390625,1.0234375,0,1.4140625l-4,4C17.5117188,28.9023438,17.2558594,29,17,29  s-0.5117188-0.0976563-0.7070313-0.2929688l-2-2c-0.390625-0.390625-0.390625-1.0234375,0-1.4140625s1.0234375-0.390625,1.4140625,0  L17,26.5859375l3.2929688-3.2929688C20.6835938,22.9023438,21.3164063,22.9023438,21.7070313,23.2929688z M34,27  c0,0.5527344-0.4477539,1-1,1h-9c-0.5522461,0-1-0.4472656-1-1s0.4477539-1,1-1h9C33.5522461,26,34,26.4472656,34,27z   M21.7070313,15.2929688c0.390625,0.390625,0.390625,1.0234375,0,1.4140625l-4,4C17.5117188,20.9023438,17.2558594,21,17,21  s-0.5117188-0.0976563-0.7070313-0.2929688l-2-2c-0.390625-0.390625-0.390625-1.0234375,0-1.4140625s1.0234375-0.390625,1.4140625,0  L17,18.5859375l3.2929688-3.2929688C20.6835938,14.9023438,21.3164063,14.9023438,21.7070313,15.2929688z M34,19  c0,0.5527344-0.4477539,1-1,1h-9c-0.5522461,0-1-0.4472656-1-1s0.4477539-1,1-1h9C33.5522461,18,34,18.4472656,34,19z"/></svg>